<svg aria-hidden="true" style="position: absolute; width: 0; height: 0; overflow: hidden;" version="1.1" xmlns="http://www.w3.org/2000/svg" xmlns:xlink="http://www.w3.org/1999/xlink">
<defs>
<symbol id="icon-logo" viewBox="0 0 63 32">
<path fill="#2b7fff" style="fill: var(--color1, #2b7fff)" d="M1.332 0.624h5.004c1.18 0 2.087 0.089 2.721 0.266 0.647 0.165 1.104 0.438 1.37 0.818 0.266 0.368 0.4 0.888 0.4 1.56v1.522c0 0.343-0.139 0.666-0.419 0.97-0.266 0.304-0.584 0.514-0.951 0.628v0.095c0.482 0.051 0.92 0.26 1.313 0.628 0.406 0.355 0.609 0.755 0.609 1.199v1.903c0 1.002-0.4 1.712-1.199 2.131s-2.036 0.628-3.71 0.628h-5.137v-12.349zM6.336 5.648c0.469 0 0.818-0.038 1.046-0.114s0.381-0.197 0.457-0.362c0.089-0.178 0.133-0.431 0.133-0.761v-0.609c0-0.292-0.038-0.507-0.114-0.647-0.076-0.152-0.235-0.26-0.476-0.323-0.228-0.063-0.596-0.095-1.104-0.095h-1.979v2.911h2.036zM6.412 10.861c0.723 0 1.237-0.082 1.541-0.247s0.457-0.431 0.457-0.799v-0.989c0-0.457-0.12-0.78-0.361-0.97-0.228-0.19-0.641-0.285-1.237-0.285h-2.512v3.292h2.112zM17.919 13.163c-3.26 0-4.89-0.996-4.89-2.987v-3.311c0-1.154 0.368-1.992 1.104-2.512 0.748-0.52 1.896-0.78 3.444-0.78 1.459 0 2.524 0.254 3.197 0.761 0.685 0.495 1.027 1.338 1.027 2.531v2.245h-5.974v0.837c0 0.533 0.19 0.913 0.571 1.142s1.066 0.342 2.055 0.342c0.913 0 1.941-0.133 3.082-0.4v1.77c-1.129 0.241-2.334 0.361-3.615 0.361zM19.156 7.531v-1.332c0-0.304-0.127-0.533-0.381-0.685-0.241-0.152-0.653-0.228-1.237-0.228-0.672 0-1.123 0.076-1.351 0.228-0.241 0.165-0.361 0.393-0.361 0.685v1.332h3.33zM26.53 13.163c-0.863 0-1.509-0.076-1.941-0.228-0.419-0.165-0.717-0.45-0.894-0.856-0.165-0.419-0.247-1.040-0.247-1.865 0-0.736 0.089-1.313 0.266-1.731 0.19-0.419 0.488-0.717 0.894-0.894 0.419-0.19 0.989-0.285 1.712-0.285h3.12v-0.628c0-0.393-0.057-0.685-0.171-0.875-0.101-0.19-0.298-0.323-0.59-0.4-0.279-0.076-0.704-0.114-1.275-0.114-0.786 0-1.865 0.076-3.235 0.228v-1.75c1.002-0.127 2.175-0.19 3.52-0.19 1.18 0 2.087 0.089 2.721 0.266 0.647 0.178 1.11 0.482 1.389 0.913s0.419 1.059 0.419 1.884v6.336h-2.721v-0.837c-0.216 0.368-0.507 0.628-0.875 0.78-0.368 0.165-1.066 0.247-2.093 0.247zM27.615 11.432c0.558 0 0.958-0.019 1.199-0.057 0.178-0.025 0.298-0.063 0.361-0.114 0.076-0.051 0.14-0.133 0.19-0.247 0.051-0.089 0.076-0.222 0.076-0.4v-1.789h-1.903c-0.431 0-0.736 0.032-0.913 0.095-0.178 0.051-0.298 0.165-0.361 0.342-0.063 0.165-0.095 0.463-0.095 0.894 0 0.419 0.032 0.71 0.095 0.875s0.184 0.273 0.361 0.323c0.19 0.051 0.52 0.076 0.989 0.076zM37.86 13.163c-1.18 0-2.011-0.209-2.493-0.628-0.469-0.431-0.704-1.104-0.704-2.017v-6.755h2.778v6.374c0 0.355 0.032 0.622 0.095 0.799 0.076 0.178 0.216 0.304 0.419 0.381 0.216 0.076 0.539 0.114 0.97 0.114 0.545 0 0.945-0.032 1.199-0.095 0.254-0.076 0.425-0.203 0.514-0.381s0.133-0.45 0.133-0.818v-6.374h2.778v9.209h-2.74v-1.123c-0.203 0.875-1.186 1.313-2.949 1.313zM50.584 13.163c-0.469 0-0.863-0.019-1.18-0.057s-0.634-0.114-0.951-0.228c-0.355-0.114-0.647-0.273-0.875-0.476-0.216-0.203-0.393-0.482-0.533-0.837-0.152-0.368-0.228-0.793-0.228-1.275v-4.814h-1.865v-1.712h1.865v-2.664h2.778v2.664h2.531v1.712h-2.531v4.338c0 0.444 0.038 0.78 0.114 1.008 0.076 0.216 0.222 0.374 0.438 0.476 0.216 0.089 0.545 0.133 0.989 0.133 0.178 0 0.507-0.032 0.989-0.095v1.731c-0.596 0.063-1.11 0.095-1.541 0.095zM56.335 12.897l-3.672-9.133h3.025l2.074 6.507 1.884-6.507h2.873l-5.042 13.167h-2.816l1.674-4.034zM0.761 29.328l6.431-8.429h-6.241v-2.112h9.894v1.789l-6.431 8.429h6.545v2.131h-10.198v-1.808zM17.282 31.325c-0.571 0-1.040-0.019-1.408-0.057s-0.761-0.114-1.18-0.228c-0.457-0.127-0.824-0.304-1.104-0.533-0.279-0.241-0.514-0.577-0.704-1.008-0.19-0.419-0.285-0.926-0.285-1.522v-2.721c0-0.609 0.095-1.142 0.285-1.598s0.438-0.812 0.742-1.066c0.266-0.216 0.615-0.393 1.046-0.533 0.444-0.152 0.875-0.247 1.294-0.285 0.482-0.025 0.92-0.038 1.313-0.038 0.584 0 1.046 0.019 1.389 0.057 0.355 0.025 0.742 0.101 1.161 0.228 0.457 0.14 0.824 0.33 1.104 0.571 0.292 0.241 0.539 0.584 0.742 1.027 0.19 0.457 0.285 1.002 0.285 1.636v2.721c0 0.571-0.095 1.072-0.285 1.503-0.178 0.431-0.412 0.767-0.704 1.008-0.254 0.216-0.603 0.393-1.046 0.533-0.431 0.127-0.856 0.209-1.275 0.247-0.381 0.038-0.837 0.057-1.37 0.057zM17.282 29.594c0.52 0 0.913-0.038 1.18-0.114 0.266-0.089 0.45-0.222 0.552-0.4 0.114-0.178 0.171-0.438 0.171-0.78v-3.482c0-0.507-0.133-0.863-0.4-1.066s-0.767-0.304-1.503-0.304c-0.736 0-1.237 0.101-1.503 0.304s-0.4 0.558-0.4 1.066v3.482c0 0.343 0.051 0.603 0.152 0.78 0.114 0.178 0.304 0.311 0.571 0.4 0.266 0.076 0.66 0.114 1.18 0.114zM24.128 21.926h2.74v1.123c0.216-0.875 1.199-1.313 2.949-1.313 1.18 0 2.004 0.216 2.474 0.647 0.482 0.419 0.723 1.085 0.723 1.998v6.755h-2.778v-6.393c0-0.355-0.038-0.622-0.114-0.799-0.063-0.178-0.203-0.304-0.419-0.381-0.203-0.076-0.52-0.114-0.951-0.114-0.545 0-0.945 0.038-1.199 0.114-0.254 0.063-0.425 0.184-0.514 0.361s-0.133 0.45-0.133 0.818v6.393h-2.778v-9.209zM40.068 31.325c-3.26 0-4.89-0.996-4.89-2.987v-3.311c0-1.154 0.368-1.992 1.104-2.512 0.748-0.52 1.896-0.78 3.444-0.78 1.459 0 2.524 0.254 3.197 0.761 0.685 0.495 1.027 1.338 1.027 2.531v2.245h-5.974v0.837c0 0.533 0.19 0.913 0.571 1.142s1.066 0.343 2.055 0.343c0.913 0 1.941-0.133 3.082-0.4v1.77c-1.129 0.241-2.334 0.361-3.615 0.361zM41.304 25.693v-1.332c0-0.304-0.127-0.533-0.381-0.685-0.241-0.152-0.653-0.228-1.237-0.228-0.672 0-1.123 0.076-1.351 0.228-0.241 0.165-0.361 0.393-0.361 0.685v1.332h3.33z"></path>
</symbol>
<symbol id="icon-phone" viewBox="0 0 32 32">
<path d="M27.655 22.957l-0.173-0.216c-1.372-1.735-2.519-2.637-3.503-2.756-0.851-0.116-1.673 0.472-2.548 1.077l-0.935 0.584c-0.112 0.056-0.223 0.101-0.327 0.132-0.547 0.155-1.927 0.245-2.708-0.469-0.909-0.832-2.32-2.355-3.417-3.685-1.048-1.377-2.2-3.095-2.801-4.176-0.508-0.916-0.083-2.197 0.201-2.672 0.056-0.093 0.129-0.185 0.211-0.276l0.824-0.761c0.012-0.012 0.017-0.027 0.028-0.037 0.008-0.008 0.021-0.005 0.031-0.012 0.744-0.628 1.513-1.275 1.619-2.105 0.124-0.976-0.483-2.296-1.857-4.029l-0.168-0.216c-0.851-1.091-2.137-2.74-3.985-2.468-0.727 0.108-1.376 0.356-2.045 0.776-0.007 0.004-0.011 0.012-0.016 0.016s-0.012 0.004-0.017 0.008l-0.932 0.691c-0.009 0.005-0.015 0.017-0.024 0.025-0.007 0.007-0.017 0.008-0.025 0.015-0.108 0.091-0.216 0.184-0.323 0.28-0.945 0.843-2.992 3.289-1.596 7.815 0.901 2.923 2.76 6.333 5.388 9.883l-0.025 0.021 1.449 1.805 0.012-0.009c2.849 3.371 5.749 5.976 8.407 7.553 1.773 1.053 3.323 1.401 4.597 1.401 1.677 0 2.879-0.603 3.481-0.995l0.379-0.253c0.043-0.029 0.073-0.071 0.104-0.108l0.825-0.621c0.009-0.008 0.015-0.019 0.024-0.027 0.004-0.004 0.011-0.003 0.016-0.007 0.587-0.536 0.993-1.097 1.276-1.763 0.732-1.705-0.579-3.339-1.445-4.42zM28.12 26.959c-0.22 0.517-0.541 0.957-1.005 1.384l-1.228 0.924c-1.112 0.723-3.489 1.616-6.943-0.435-2.657-1.577-5.583-4.244-8.461-7.712l-0.779-0.984c-2.711-3.595-4.617-7.037-5.517-9.955-1.169-3.793 0.304-5.828 1.291-6.707 0.1-0.091 0.2-0.175 0.299-0.259l0.004-0.004 0.895-0.663c0.544-0.344 1.048-0.536 1.628-0.624 1.239-0.187 2.247 1.12 2.987 2.069l0.173 0.22c1.536 1.937 1.684 2.859 1.636 3.235-0.053 0.417-0.688 0.952-1.248 1.423l-0.079 0.067c-0.003 0.003-0.004 0.007-0.007 0.009-0.004 0.003-0.008 0.004-0.012 0.007l-0.852 0.788c-0.005 0.005-0.008 0.012-0.013 0.019s-0.016 0.009-0.021 0.016c-0.132 0.148-0.245 0.296-0.337 0.449-0.479 0.801-0.931 2.457-0.217 3.739 0.623 1.12 1.808 2.889 2.897 4.319 1.139 1.381 2.591 2.949 3.532 3.809 0.705 0.644 1.687 0.86 2.536 0.86 0.455 0 0.872-0.063 1.188-0.152 0.167-0.048 0.339-0.117 0.516-0.204 0.011-0.005 0.016-0.015 0.027-0.021 0.005-0.003 0.013-0.001 0.019-0.005l0.989-0.619c0.032-0.021 0.053-0.049 0.080-0.076l0.012 0.013c0.609-0.423 1.304-0.919 1.739-0.847 0.385 0.047 1.26 0.417 2.799 2.36l0.177 0.223c0.749 0.935 1.776 2.215 1.297 3.333z"></path>
</symbol>
<symbol id="icon-instagram" viewBox="0 0 32 32">
<path d="M16 8.923c-1.4 0-2.768 0.415-3.932 1.193s-2.071 1.883-2.607 3.176c-0.536 1.293-0.676 2.716-0.403 4.089s0.947 2.634 1.937 3.623c0.99 0.99 2.251 1.664 3.623 1.937s2.796 0.133 4.089-0.403c1.293-0.536 2.398-1.443 3.176-2.607s1.193-2.532 1.193-3.932c0-1.877-0.746-3.677-2.073-5.004s-3.127-2.073-5.004-2.073zM16 21.231c-1.035 0-2.046-0.307-2.906-0.882s-1.531-1.392-1.927-2.347-0.499-2.008-0.298-3.022c0.202-1.015 0.7-1.947 1.432-2.678s1.664-1.23 2.678-1.432c1.015-0.202 2.066-0.098 3.022 0.298s1.773 1.066 2.347 1.927c0.575 0.86 0.882 1.871 0.882 2.906-0.004 1.386-0.556 2.714-1.537 3.694s-2.308 1.532-3.694 1.537zM22.769 0.923h-13.538c-2.203 0-4.316 0.875-5.874 2.433s-2.433 3.671-2.433 5.874v13.538c0 2.203 0.875 4.316 2.433 5.874s3.671 2.433 5.874 2.433h13.538c2.203 0 4.316-0.875 5.874-2.433s2.433-3.671 2.433-5.874v-13.538c0-2.203-0.875-4.316-2.433-5.874s-3.671-2.433-5.874-2.433zM29.231 22.769c0 1.714-0.681 3.357-1.893 4.569s-2.855 1.893-4.569 1.893h-13.538c-1.714 0-3.357-0.681-4.569-1.893s-1.893-2.855-1.893-4.569v-13.538c0-1.714 0.681-3.357 1.893-4.569s2.855-1.893 4.569-1.893h13.538c1.714 0 3.357 0.681 4.569 1.893s1.893 2.855 1.893 4.569v13.538zM25.538 8c0 0.304-0.090 0.602-0.259 0.855s-0.409 0.45-0.69 0.567c-0.281 0.116-0.591 0.147-0.889 0.088s-0.573-0.206-0.788-0.421-0.362-0.489-0.421-0.788c-0.059-0.298-0.029-0.608 0.088-0.889s0.314-0.521 0.567-0.69c0.253-0.169 0.551-0.259 0.855-0.259 0.408 0 0.799 0.162 1.088 0.451s0.451 0.68 0.451 1.088z"></path>
</symbol>
<symbol id="icon-facebook" viewBox="0 0 32 32">
<path d="M23.987 2.128c-1.345-0.143-2.697-0.212-4.049-0.208-4.484 0-7.271 2.856-7.271 7.453v3.121h-3.767c-0.177 0-0.346 0.070-0.471 0.195s-0.195 0.295-0.195 0.471v5.133c0 0.177 0.070 0.346 0.195 0.471s0.295 0.195 0.471 0.195h3.767v10.293c0 0.177 0.070 0.346 0.195 0.471s0.295 0.195 0.471 0.195h5.304c0.177 0 0.346-0.070 0.471-0.195s0.195-0.295 0.195-0.471v-10.293h3.755c0.162 0 0.318-0.059 0.44-0.165s0.2-0.254 0.221-0.415l0.663-5.133c0.012-0.094 0.005-0.19-0.023-0.28s-0.074-0.175-0.137-0.246c-0.063-0.071-0.14-0.128-0.226-0.168s-0.18-0.059-0.275-0.059h-4.417v-2.612c0-1.293 0.26-1.833 1.877-1.833h2.719c0.177 0 0.346-0.070 0.471-0.195s0.195-0.295 0.195-0.471v-4.593c0-0.162-0.059-0.318-0.165-0.44s-0.254-0.2-0.415-0.221zM23.233 6.715l-2.053 0.001c-2.876 0-3.209 1.808-3.209 3.167v3.28c0 0.177 0.070 0.346 0.195 0.471s0.294 0.195 0.471 0.196h4.328l-0.492 3.8h-3.835c-0.177 0-0.346 0.070-0.471 0.195s-0.195 0.295-0.195 0.471v10.291h-3.971v-10.291c0-0.177-0.070-0.346-0.195-0.471s-0.295-0.195-0.471-0.195h-3.765v-3.8h3.765c0.177 0 0.346-0.070 0.471-0.195s0.195-0.295 0.195-0.471v-3.789c0-3.832 2.22-6.12 5.937-6.12 1.345 0 2.56 0.073 3.296 0.137v3.324z"></path>
</symbol>
 <symbol id="icon-Arrow" viewBox="0 0 36 32">
<path d="M1.062 17.414a2 2 0 0 1 0-2.828L13.79 1.858a2 2 0 1 1 2.828 2.828L5.304 16l11.314 11.314a2 2 0 1 1-2.828 2.828L1.062 17.414zM36 18H2.476v-4H36v4z"/>
</symbol>
<symbol id="icon-menu" viewBox="0 0 32 32">
  <path d="M29.333 24.007c0 0.733-0.595 1.327-1.327 1.327h-10.68c-0.733 0-1.327-0.594-1.327-1.327s0.594-1.327 1.327-1.327h10.68c0.733 0 1.327 0.593 1.327 1.327zM29.333 16c0 0.733-0.595 1.327-1.327 1.327h-24.013c-0.733 0-1.327-0.594-1.327-1.327s0.594-1.327 1.327-1.327h24.013c0.733 0 1.327 0.595 1.327 1.327zM28.007 9.32c0.733 0 1.327-0.594 1.327-1.327s-0.594-1.327-1.327-1.327h-16.013c-0.733 0-1.327 0.594-1.327 1.327s0.594 1.327 1.327 1.327h16.013z"></path>
</symbol>
<symbol id="icon-close" viewBox="0 0 24 24">
  <path stroke-linejoin="miter" stroke-linecap="round" stroke-miterlimit="4" stroke-width="2" d="M9 6l6 6 6-6M9 18l6-6 6 6"></path>
</symbol>
</defs>
</svg>
